<svg width="22" height="23" viewBox="0 0 22 23" fill="none" xmlns="http://www.w3.org/2000/svg">
<path d="M2.21768 21.1517L2.20884 21.1516H2.2C1.88396 21.1516 1.57947 21.0252 1.3539 20.7981C1.12808 20.5707 1 20.2609 1 19.9364V9.71727L11 1.0868L21 9.71727V19.9364C21 20.2609 20.8719 20.5707 20.6461 20.7981C20.4205 21.0252 20.116 21.1516 19.8 21.1516H19.7912L19.7823 21.1517L15 21.2363V15.6068C15 14.7563 14.6645 13.9392 14.0652 13.3358C13.8586 13.1278 13.5947 12.9639 13.3684 12.8424C13.127 12.7129 12.8584 12.595 12.5939 12.4955C12.1033 12.3111 11.4786 12.1342 11 12.1342C10.5214 12.1342 9.8967 12.3111 9.40613 12.4955C9.14159 12.595 8.87295 12.7129 8.63158 12.8424C8.40534 12.9639 8.14137 13.1278 7.93484 13.3358C7.33548 13.9392 7 14.7563 7 15.6068V21.2363L2.21768 21.1517Z" stroke="black" stroke-width="2"/>
</svg>
