<svg width="20" height="20" viewBox="0 0 20 20" fill="none" xmlns="http://www.w3.org/2000/svg">
<path d="M7.88299 0.206972C8.35865 0.150916 8.83793 0.276568 9.22491 0.55878C9.61188 0.840992 9.878 1.25894 9.96999 1.72897L9.99499 1.89597L9.99999 1.99997V8.99997C10 9.24491 10.0899 9.48131 10.2527 9.66434C10.4155 9.84738 10.6397 9.96432 10.883 9.99297L11 9.99997H17.8C18.3304 9.99997 18.8391 10.2107 19.2142 10.5858C19.5893 10.9608 19.8 11.4695 19.8 12C19.7999 12.076 19.7912 12.1519 19.774 12.226C19.3738 13.9526 18.5219 15.5419 17.3055 16.831C16.0891 18.1202 14.5519 19.0628 12.8513 19.5625C11.1508 20.0622 9.348 20.1009 7.62757 19.6747C5.90715 19.2485 4.33092 18.3727 3.06029 17.1369C1.78967 15.9012 0.870307 14.35 0.396363 12.6421C-0.0775802 10.9342 -0.0890775 9.13101 0.363049 7.41722C0.815175 5.70342 1.71468 4.14059 2.96944 2.88876C4.22421 1.63693 5.78914 0.741085 7.50399 0.292972L7.77399 0.225973L7.88399 0.205973L7.88299 0.206972Z" fill="black"/>
<path d="M12 1.49995V6.99995C12 7.26517 12.1054 7.51952 12.2929 7.70706C12.4804 7.89459 12.7348 7.99995 13 7.99995H18.5C18.6598 7.99991 18.8173 7.96155 18.9593 7.88809C19.1013 7.81463 19.2235 7.70822 19.3159 7.57776C19.4082 7.44731 19.468 7.29662 19.4901 7.13832C19.5122 6.98002 19.4961 6.81872 19.443 6.66795C18.9463 5.25729 18.1396 3.97598 17.0822 2.91839C16.0248 1.86079 14.7436 1.05384 13.333 0.556951C13.1822 0.503686 13.0208 0.487379 12.8623 0.509399C12.7039 0.53142 12.5531 0.591126 12.4225 0.683505C12.2919 0.775884 12.1854 0.898241 12.1119 1.0403C12.0383 1.18237 12 1.33999 12 1.49995Z" fill="black"/>
</svg>
