<svg width="22" height="23" viewBox="0 0 22 23" fill="none" xmlns="http://www.w3.org/2000/svg">
<path d="M11.4767 0.177261C11.3438 0.0628634 11.1748 0 11 0C10.8252 0 10.6562 0.0628634 10.5233 0.177261L0 9.25938V19.9364C0 20.5239 0.231785 21.0873 0.644365 21.5028C1.05695 21.9182 1.61652 22.1516 2.2 22.1516L7.26667 22.2411C7.46116 22.2411 7.64769 22.1634 7.78521 22.0249C7.92274 21.8864 8 21.6986 8 21.5028V15.6068C8 15.0193 8.23178 14.4559 8.64436 14.0404C9.05694 13.625 10.4165 13.1342 11 13.1342C11.5835 13.1342 12.9431 13.625 13.3556 14.0404C13.7682 14.4559 14 15.0193 14 15.6068V21.5028C14 21.6986 14.0773 21.8864 14.2148 22.0249C14.3523 22.1634 14.5388 22.2411 14.7333 22.2411L19.8 22.1516C20.3835 22.1516 20.9431 21.9182 21.3556 21.5028C21.7682 21.0873 22 20.5239 22 19.9364V9.25938L11.4767 0.177261Z" fill="black"/>
</svg>
