<svg width="20" height="20" viewBox="0 0 20 20" fill="none" xmlns="http://www.w3.org/2000/svg">
<path d="M7.96749 1.00614C6.4032 1.36878 4.96441 2.14333 3.80037 3.24947C2.63633 4.35561 1.78943 5.75304 1.34752 7.29681C0.905608 8.84059 0.884775 10.4745 1.28718 12.029C1.68959 13.5836 2.50058 15.0021 3.63604 16.1376C4.7715 17.273 6.19007 18.084 7.74461 18.4864C9.29915 18.8889 10.933 18.868 12.4768 18.4261C14.0206 17.9842 15.418 17.1373 16.5242 15.9733C17.6303 14.8092 18.4049 13.3704 18.7675 11.8061C18.7675 11.5409 18.6621 11.2866 18.4746 11.099C18.2871 10.9115 18.0327 10.8061 17.7675 10.8061H10.9675C10.4371 10.8061 9.92835 10.5954 9.55328 10.2203C9.17821 9.84528 8.96749 9.33657 8.96749 8.80614V1.80614C8.95507 1.68766 8.91925 1.57283 8.86211 1.4683C8.80497 1.36378 8.72765 1.27163 8.63462 1.19722C8.5416 1.1228 8.43474 1.06759 8.32022 1.03479C8.2057 1.00199 8.0858 0.99225 7.96749 1.00614Z" stroke="black" stroke-width="2" stroke-linecap="round" stroke-linejoin="round"/>
<path d="M12.9675 1.30615C14.2373 1.75324 15.3905 2.47945 16.3424 3.43131C17.2942 4.38317 18.0204 5.53643 18.4675 6.80615H13.9675C13.7023 6.80615 13.448 6.7008 13.2604 6.51326C13.0729 6.32572 12.9675 6.07137 12.9675 5.80615V1.30615Z" stroke="black" stroke-width="2" stroke-linecap="round" stroke-linejoin="round"/>
</svg>
